<?xml version="1.0" encoding="UTF-8"?>
<svg id="Layer_1" data-name="Layer 1" xmlns="http://www.w3.org/2000/svg" viewBox="0 0 1080 1080">
  <defs>
    <style>
      .cls-1 {
        fill: #1b2417;
      }

      .cls-2 {
        fill: #61b12f;
      }
    </style>
  </defs>
  <path class="cls-1" d="M859.94,701.69c-60.38,111.38-181.13,187.5-319.9,187.5-199.15,0-361.13-156.65-361.13-349.24,0-68.69,20.67-132.97,56.32-187.07l99.01,55.32,525.7,293.49Z"/>
  <g>
    <path class="cls-2" d="M901.08,539.99c0,38.46-6.47,75.44-18.4,110.03l-101.92-56.91c4-17.12,6.15-34.84,6.15-53.12,0-131.68-110.73-238.78-246.9-238.78-64.75,0-123.73,24.17-167.81,63.79l-101.92-56.92c66.14-71.89,162.55-117.27,269.73-117.27,199.08,0,361.06,156.65,361.06,349.18"/>
    <polygon class="cls-2" points="389.41 672.68 389.41 546.73 690.59 407.32 690.59 533.27 389.41 672.68"/>
  </g>
</svg>