<?xml version="1.0" encoding="UTF-8"?>
<svg id="Layer_1" data-name="Layer 1" xmlns="http://www.w3.org/2000/svg" viewBox="0 0 1080 1080">
  <defs>
    <style>
      .cls-1 {
        fill: #1b2417;
      }

      .cls-2 {
        fill: #fff;
      }

      .cls-3 {
        fill: #61b12f;
      }
    </style>
  </defs>
  <rect class="cls-3" y="1.93" width="1080" height="1080"/>
  <path class="cls-1" d="M840.51,634.84c-56.71,104.62-170.13,176.11-300.46,176.11-187.05,0-339.19-147.13-339.19-328.02,0-64.52,19.42-124.9,52.9-175.71l92.99,51.96,493.76,275.66Z"/>
  <g>
    <path class="cls-2" d="M879.14,482.96c0,36.12-6.08,70.86-17.28,103.35l-95.73-53.46c3.76-16.08,5.78-32.73,5.78-49.89,0-123.68-104.01-224.27-231.9-224.27-60.82,0-116.22,22.7-157.62,59.92l-95.73-53.46c62.13-67.52,152.67-110.15,253.35-110.15,186.99,0,339.12,147.13,339.12,327.97"/>
    <polygon class="cls-2" points="398.56 607.59 398.56 489.29 681.44 358.35 681.44 476.65 398.56 607.59"/>
  </g>
  <g>
    <path class="cls-1" d="M228.85,878.26c-6.22,0-10.89,2.47-13.54,6.31h-.18v-25.53h-13.91v51.6c0,5.03-.18,10.43-.37,13.36h11.8l.55-6.22h.18c3.2,5.31,8.23,7.23,13.45,7.23,10.25,0,20.49-8.05,20.49-24.15.09-13.72-7.78-22.6-18.48-22.6ZM223.55,914.03c-4.03,0-7.23-2.84-8.14-6.59-.18-.73-.27-1.56-.27-2.47v-6.59c0-.91.09-1.74.27-2.56.92-4.03,4.39-6.86,8.14-6.86,6.5,0,9.61,5.49,9.61,12.44,0,8.05-3.66,12.63-9.61,12.63Z"/>
    <rect class="cls-1" x="255.93" y="859.05" width="13.91" height="64.96"/>
    <path class="cls-1" d="M302.41,878.26c-14.36,0-23.88,9.24-23.88,23.7s10.06,23.06,23.15,23.06c11.99,0,23.61-7.5,23.61-23.88,0-13.45-9.15-22.87-22.87-22.87ZM302.04,915.04c-5.95,0-9.15-5.76-9.15-13.45,0-6.59,2.47-13.45,9.15-13.45,6.31,0,8.87,6.77,8.87,13.45,0,8.05-3.48,13.45-8.87,13.45Z"/>
    <path class="cls-1" d="M373.03,879.26h-15.1l-3.93,7.23c-1.19,2.2-2.29,4.48-3.48,6.86h-.18c-1.19-2.1-2.38-4.39-3.66-6.68l-4.39-7.41h-15.55l14.82,21.96-15.19,22.78h15.28l4.21-8.05c1.1-2.2,2.29-4.39,3.38-6.77h.27c1.1,2.29,2.2,4.57,3.48,6.77l4.48,8.05h15.74l-14.91-23.42,14.73-21.32Z"/>
    <path class="cls-1" d="M395.9,866.46l-13.63,3.11v9.7h-5.95v10.25h5.95v18.3c0,6.31,1.28,10.61,3.84,13.27,2.2,2.29,5.95,3.84,10.43,3.84,3.93,0,7.23-.46,9.06-1.19l-.09-10.52c-1.01.18-2.38.37-4.12.37-4.21,0-5.49-2.47-5.49-7.87v-16.19h9.97v-10.25h-9.97v-12.81Z"/>
    <path class="cls-1" d="M426.37,887.5h-.37l-.46-8.23h-11.99c.18,3.84.37,8.14.37,14.73v30.01h13.91v-22.69c0-1.1.09-2.2.27-3.11.92-4.3,4.39-7.05,9.51-7.05,1.56,0,2.74.18,3.75.37v-13.08c-1.01-.18-1.65-.18-2.93-.18-4.3,0-9.79,2.74-12.08,9.24Z"/>
    <path class="cls-1" d="M485.01,897.56c0-10.52-4.76-19.3-19.67-19.3-8.14,0-14.27,2.2-17.38,3.93l2.56,8.97c2.93-1.83,7.78-3.38,12.35-3.38,6.86,0,8.14,3.38,8.14,5.76v.64c-15.83-.09-26.26,5.49-26.26,17.11,0,7.14,5.4,13.72,14.45,13.72,5.31,0,9.88-1.92,12.81-5.49h.27l.82,4.48h12.53c-.46-2.47-.64-6.59-.64-10.89v-15.55ZM471.47,907.72c0,.82-.09,1.65-.27,2.38-.92,2.84-3.75,5.12-7.23,5.12-3.11,0-5.49-1.74-5.49-5.31,0-5.4,5.67-7.14,12.99-7.05v4.85Z"/>
    <path class="cls-1" d="M539.35,859.05h-13.91v24.24h-.18c-2.01-3.11-6.31-5.03-11.8-5.03-10.7,0-20.13,8.69-20.04,23.79,0,13.91,8.51,22.96,19.12,22.96,5.76,0,11.16-2.56,14-7.59h.18l.64,6.59h12.35c-.18-3.02-.37-8.33-.37-13.36v-51.6ZM525.44,904.06c0,1.19-.09,2.2-.37,3.2-.82,3.93-4.03,6.68-8.05,6.68-5.76,0-9.51-4.76-9.51-12.35,0-7.04,3.29-12.72,9.61-12.72,4.3,0,7.32,3.11,8.14,6.86.09.73.18,1.74.18,2.47v5.86Z"/>
    <path class="cls-1" d="M570.55,878.26c-15.55,0-22.6,12.53-22.6,23.88,0,14,8.69,22.78,23.88,22.78,6.04,0,11.62-.91,16.19-2.74l-1.83-9.42c-3.75,1.19-7.59,1.83-12.35,1.83-6.5,0-12.17-2.74-12.63-8.51h28.82c.18-1.01.46-3.11.46-5.49,0-11.07-5.49-22.32-19.94-22.32ZM561.12,896.56c.37-3.75,2.74-9.06,8.6-9.06,6.4,0,7.87,5.67,7.87,9.06h-16.47Z"/>
    <path class="cls-1" d="M603.48,913.48c-3.2,0-5.49,2.38-5.49,5.76s2.2,5.76,5.4,5.76c3.38,0,5.49-2.47,5.49-5.76s-2.2-5.76-5.4-5.76Z"/>
    <path class="cls-1" d="M639.43,885.21c4.39,0,7.41,1.01,9.33,2.1l1.83-6.22c-2.2-1.1-6.4-2.29-11.16-2.29-14.45,0-23.79,9.88-23.79,23.51s8.69,22.6,22.05,22.6c5.95,0,10.61-1.46,12.72-2.56l-1.37-6.04c-2.29,1.01-5.31,2.2-9.88,2.2-8.78,0-15.37-6.31-15.37-16.56,0-9.24,5.49-16.74,15.65-16.74Z"/>
    <path class="cls-1" d="M678.04,878.72c-12.26,0-21.96,8.69-21.96,23.51,0,14,9.24,22.78,21.23,22.78,10.7,0,22.05-7.14,22.05-23.51,0-13.54-8.6-22.78-21.32-22.78ZM677.67,918.97c-7.87,0-13.45-7.32-13.45-17.02,0-8.42,4.12-17.2,13.63-17.2s13.27,9.51,13.27,17.02c0,9.97-5.76,17.2-13.45,17.2Z"/>
    <path class="cls-1" d="M758.18,878.72c-4.21,0-7.14,1.1-9.79,3.11-1.83,1.37-3.57,3.29-4.94,5.76h-.18c-1.92-5.22-6.5-8.87-12.53-8.87-7.32,0-11.44,3.93-13.91,8.14h-.27l-.37-7.14h-7.04c.27,3.66.37,7.41.37,11.98v32.3h7.87v-26.71c0-1.37.18-2.74.64-3.93,1.28-4.03,4.94-8.05,9.97-8.05,6.13,0,9.24,5.12,9.24,12.17v26.53h7.87v-27.36c0-1.46.27-2.93.64-4.03,1.37-3.93,4.94-7.32,9.51-7.32,6.5,0,9.61,5.12,9.61,13.63v25.07h7.87v-26.07c0-15.37-8.69-19.21-14.55-19.21Z"/>
    <path class="cls-1" d="M789.38,913.48c-3.2,0-5.49,2.38-5.49,5.76s2.2,5.76,5.4,5.76c3.38,0,5.49-2.47,5.49-5.76s-2.2-5.76-5.4-5.76Z"/>
    <path class="cls-1" d="M827.98,878.72c-7.14,0-12.26,3.2-15.1,8.14h-.18v-27.81h-7.96v53.52c0,3.93-.18,8.42-.37,11.44h6.95l.37-7.32h.27c3.29,5.86,8.42,8.33,14.82,8.33,9.88,0,19.85-7.87,19.85-23.7.09-13.45-7.69-22.6-18.66-22.6ZM825.15,918.6c-5.86,0-10.52-3.84-12.08-9.42-.18-.91-.37-1.92-.37-2.93v-7.96c0-1.28.27-2.38.46-3.29,1.65-6.13,6.77-9.88,12.26-9.88,8.6,0,13.17,7.59,13.17,16.47,0,10.16-5.03,17.02-13.45,17.02Z"/>
    <path class="cls-1" d="M876.38,878.72c-5.4,0-10.25,3.75-12.26,9.7h-.37l-.27-8.69h-7.04c.27,4.12.37,8.6.37,13.81v30.47h7.96v-23.6c0-1.37.18-2.65.37-3.75,1.1-6.04,5.12-10.34,10.8-10.34,1.1,0,1.92.09,2.75.27v-7.59c-.73-.18-1.37-.27-2.29-.27Z"/>
  </g>
</svg>