<?xml version="1.0" encoding="utf-8"?>
<!-- Generator: Adobe Illustrator 28.2.0, SVG Export Plug-In . SVG Version: 6.00 Build 0)  -->
<svg version="1.1" id="layer" xmlns="http://www.w3.org/2000/svg" xmlns:xlink="http://www.w3.org/1999/xlink" x="0px" y="0px"
	 viewBox="0 0 300 150" style="enable-background:new 0 0 300 150;" xml:space="preserve">
<style type="text/css">
	.st0{fill:#222857;}
</style>
<g>
	<path class="st0" d="M64.1,57.3c-2.2,12.7-4.3,25.3-6.5,38c0,0,0,0,0,0c-1.2-6.5-2.4-13.1-3.6-19.6c0,0,0,0-0.1,0
		c-3,4.8-5.9,9.6-8.9,14.4c0,0,0,0-0.1,0c1.2-6.5,2.3-13.1,3.5-19.6c-6.8,0.1-13.7,0.1-20.5,0.2c0,0,0,0,0,0
		c5.6-2.1,11.3-4.2,17-6.3c-6.4-2.3-12.7-4.6-19-6.9c0,0,0,0,0,0C38.7,57.3,51.4,57.3,64.1,57.3z"/>
	<path class="st0" d="M122.5,68.9c0-1,0-2,0-3c0-0.4,0.2-0.6,0.6-0.6c1.1,0,2.3,0,3.4,0c0.4,0,0.6,0.2,0.6,0.6c0,3.1,0,6.1,0,9.2
		c0,2.9-1.8,5.1-4.7,5.9c-1.5,0.4-3.1,0.4-4.6,0.2c-0.1,0-0.1,0-0.2,0c-0.1,1.1-0.1,1.6,1,2c0.7,0.3,1.4,0.3,2.2,0.3
		c1.2,0,2.5,0,3.7,0.3c1.2,0.2,2.4,0.6,3.3,1.5c0.8,0.7,1.2,1.7,1.4,2.7c0.3,2.8-1,4.7-3.3,6c-1.3,0.8-2.8,1.2-4.4,1.3
		c-1.9,0.2-3.8,0.1-5.6-0.4c-1.1-0.3-2.1-0.7-3-1.5c-1.4-1.3-1.8-2.9-1.4-4.7c0.3-1.4,1.2-2.5,2.2-3.4c0.1-0.1,0.2-0.2,0.1-0.4
		c-0.1-0.5-0.2-1-0.3-1.6c0-0.1,0-0.2,0.1-0.3c0.4-1,0.8-1.9,1.2-2.8c-0.4-0.3-0.7-0.6-1-0.9c-1.3-1.4-1.8-3-1.7-4.9
		c0.2-2.8,2.2-4.8,4.9-5.5c1.8-0.5,3.6-0.6,5.4,0.1C122.4,68.9,122.4,68.9,122.5,68.9z M119.7,91.6c0.9,0,1.9-0.1,2.8-0.4
		c0.6-0.2,1.1-0.5,1.5-1c0.5-0.8,0.3-1.7-0.6-2.2c-0.2-0.1-0.4-0.2-0.7-0.2c-0.9-0.2-1.9-0.2-2.8-0.2c-1,0-2-0.1-3-0.3
		c-0.2,0-0.3,0-0.4,0.2c-0.3,0.5-0.4,1.1-0.5,1.7c-0.1,1.1,0.4,1.9,1.5,2.3C118.2,91.5,118.9,91.6,119.7,91.6z M122.3,74.9
		c0-1.1-0.4-2-1.5-2.5c-1-0.5-2.1-0.4-2.9,0.4c-0.8,0.7-0.9,1.6-0.8,2.6c0.1,0.8,0.5,1.5,1.2,1.9c0.9,0.5,1.8,0.5,2.7,0
		C121.9,76.8,122.3,75.9,122.3,74.9z"/>
	<path class="st0" d="M84.1,70c0.1,0,0.1-0.1,0.2-0.1c1.5-1.1,3.1-1.5,5-1.5c3.5,0.1,6.4,2.4,7.4,5.9c0.7,2.6,0.6,5.1-0.5,7.6
		c-1.2,2.5-3.2,4-5.9,4.4c-1.6,0.3-3.2,0.2-4.7-0.6c-0.5-0.2-0.9-0.5-1.4-0.8c0,0.2,0,0.4,0,0.6c0,0.3-0.2,0.5-0.5,0.5
		c-1.4,0-2.8,0-4.2,0c-0.3,0-0.5-0.3-0.5-0.5c0-9.1,0-18.3,0-27.4c0-0.1,0-0.1,0-0.2c1.7-0.2,3.4-0.4,5.2-0.5
		C84.1,61.5,84.1,65.7,84.1,70z M91.6,77.4c0-1-0.1-1.9-0.5-2.8c-0.6-1.4-1.9-2.2-3.4-2.1c-1.5,0.1-2.6,0.9-3.5,2.1
		c-0.1,0.1-0.1,0.2-0.1,0.3c0,1.7,0,3.4,0,5.1c0,0.1,0,0.2,0.1,0.3c0.5,0.7,1.2,1.3,2.1,1.7c2,0.9,4,0.1,4.8-2
		C91.5,79.1,91.6,78.3,91.6,77.4z"/>
	<path class="st0" d="M144.3,57.8c1.8-0.2,3.5-0.4,5.2-0.5c0,0.1,0,0.2,0,0.3c0,9.3,0,18.5,0,27.8c0,0.4-0.2,0.6-0.6,0.6
		c-1.3,0-2.7,0-4,0c-0.4,0-0.6-0.2-0.6-0.6c0-0.2,0-0.4,0-0.6c-0.1,0.1-0.2,0.1-0.3,0.2c-1.6,1.2-3.3,1.5-5.2,1.4
		c-1.5-0.1-2.9-0.6-4.1-1.5c-1.6-1.2-2.5-2.8-3-4.7c-0.6-2.4-0.5-4.7,0.5-7c1.2-2.8,3.4-4.3,6.4-4.7c1.8-0.2,3.4,0,5,1
		c0.1,0.1,0.2,0.1,0.3,0.2c0.1,0.1,0.2,0.1,0.4,0.2C144.3,65.9,144.3,61.9,144.3,57.8z M144.3,77.4c0-0.8,0-1.7,0-2.5
		c0-0.1,0-0.3-0.1-0.4c-0.4-0.6-1-1.1-1.6-1.5c-1.9-1-4.2-0.6-5.2,1.7c-0.3,0.7-0.4,1.4-0.5,2.2c-0.1,1.1,0,2.2,0.4,3.2
		c0.6,1.5,1.8,2.3,3.3,2.3c1.6,0,2.7-0.8,3.6-2.1c0.1-0.1,0.1-0.2,0.1-0.3C144.3,79.1,144.3,78.3,144.3,77.4z"/>
	<path class="st0" d="M261.1,84.9c0,3.5,0,7,0,10.5c-1.8-0.2-3.5-0.4-5.2-0.5c0-0.1,0-0.2,0-0.3c0-8.4,0-16.7,0-25.1
		c0-0.4,0.2-0.6,0.6-0.6c1.3,0,2.7,0,4,0c0.3,0,0.6,0.2,0.6,0.6c0,0.2,0,0.4,0,0.6c0.1-0.1,0.2-0.1,0.2-0.1c1.6-1.2,3.4-1.6,5.4-1.4
		c1.6,0.2,3.1,0.7,4.4,1.8c1.4,1.2,2.3,2.7,2.6,4.5c0.6,2.7,0.5,5.3-0.9,7.7c-1.3,2.4-3.4,3.6-6,3.9c-1.5,0.2-3,0-4.3-0.6
		C262,85.4,261.6,85.2,261.1,84.9z M261.1,77.4c0,0.8,0,1.7,0,2.5c0,0.1,0,0.3,0.1,0.4c0.4,0.6,0.9,1.1,1.5,1.4
		c1.8,1.1,4.4,0.8,5.4-1.9c0.2-0.6,0.3-1.3,0.4-1.9c0.1-1.1,0-2.3-0.5-3.3c-0.7-1.5-2-2.3-3.6-2.1c-1.3,0.2-2.4,0.9-3.2,1.9
		c-0.1,0.1-0.1,0.3-0.1,0.4C261.1,75.7,261.1,76.6,261.1,77.4z"/>
	<path class="st0" d="M229.3,68.4c2.5,0,4.5,0.5,6.3,1.7c2,1.4,3.2,3.4,3.5,5.9c0.3,1.9,0,3.7-0.8,5.4c-1.1,2.3-2.9,3.8-5.3,4.5
		c-2.7,0.8-5.3,0.7-7.9-0.5c-2.7-1.3-4.3-3.5-4.7-6.5c-0.3-1.8-0.1-3.6,0.7-5.3c1.2-2.6,3.2-4.1,5.9-4.8
		C227.8,68.5,228.7,68.4,229.3,68.4z M233.6,77.4c0-0.3,0-0.7-0.1-1c-0.2-1.2-0.6-2.2-1.5-3c-1.8-1.6-4.7-1-5.8,1.3
		c-0.8,1.8-0.8,3.6,0,5.4c0.6,1.4,1.8,2.2,3.3,2.2c1.6,0,2.7-0.7,3.4-2.1C233.5,79.3,233.6,78.4,233.6,77.4z"/>
	<path class="st0" d="M163,84.4c-0.7,0.6-1.3,1-2.1,1.4c-1.5,0.7-3.1,0.7-4.7,0.2c-1.9-0.7-2.9-2.2-2.9-4.2c0-1.6,0.8-2.9,2.1-3.7
		c1.2-0.8,2.5-1.2,3.9-1.4c0.8-0.2,1.6-0.3,2.5-0.4c0-0.1,0-0.2,0-0.2c0-0.9,0-1.7,0-2.6c0-0.2-0.1-0.3-0.3-0.4
		c-0.9-0.3-1.9-0.4-2.9-0.3c-1.6,0-3.1,0.5-4.5,1.2c-0.1,0-0.2,0.1-0.3,0c-0.1-0.1-0.3-0.2-0.3-0.4c0.2-1.2,0.4-2.5,0.7-3.7
		c0-0.2,0.1-0.3,0.3-0.3c1-0.4,2.1-0.6,3.2-0.8c1.3-0.2,2.7-0.2,4-0.1c0.9,0.1,1.8,0.3,2.6,0.7c1.8,0.8,2.6,2.2,2.6,4.1
		c0,1.7,0,3.4,0,5.1c0,0.8,0,1.6,0,2.4c0,0.4,0.1,0.7,0.3,1.1c0.3,0.5,0.8,0.9,1.3,1.2c0.1,0.1,0.2,0.1,0.3,0.2
		c-0.2,0.6-0.5,1.1-0.7,1.6c-0.2,0.4-0.4,0.9-0.5,1.3c-0.1,0.2-0.2,0.2-0.3,0.2C165.7,86.1,164.2,85.7,163,84.4z M161.9,79.1
		c-0.6,0.1-1.1,0.2-1.7,0.3c-0.6,0.1-1.2,0.3-1.7,0.7c-0.6,0.4-0.7,1-0.5,1.7c0.2,0.6,0.6,1,1.2,1.1c1,0.1,1.8-0.2,2.6-0.9
		c0.1,0,0.1-0.2,0.1-0.3c0-0.6,0-1.1,0-1.7C161.9,79.8,161.9,79.5,161.9,79.1z"/>
	<path class="st0" d="M194.2,76.3c0-0.1,0-0.2,0-0.3c0-0.9,0-1.7,0-2.6c0-0.2-0.1-0.3-0.2-0.3c-0.9-0.3-1.9-0.4-2.9-0.4
		c-1.6,0-3,0.5-4.5,1.2c-0.1,0-0.2,0.1-0.2,0.1c-0.3-0.2-0.4-0.4-0.3-0.7c0.2-1.2,0.4-2.3,0.6-3.5c0-0.2,0.1-0.2,0.2-0.3
		c1.2-0.4,2.4-0.7,3.6-0.8c1.2-0.1,2.4-0.2,3.6-0.1c1,0.1,1.9,0.3,2.8,0.7c1.7,0.8,2.4,2.2,2.5,4c0,0.7,0,1.4,0,2.2
		c0,1.9,0,3.7,0,5.6c0,0.2,0.1,0.4,0.2,0.6c0.3,0.6,0.8,1.1,1.4,1.4c0.1,0.1,0.2,0.1,0.3,0.2c0,0.1,0,0.1,0,0.2
		c-0.4,0.9-0.8,1.9-1.2,2.8c0,0.1-0.1,0.2-0.2,0.2c-1.2-0.2-2.3-0.4-3.4-1.1c-0.4-0.2-0.7-0.5-1-0.8c-0.5,0.3-0.9,0.7-1.4,1
		c-1.9,1.1-3.9,1.2-5.9,0.3c-1.5-0.7-2.2-2-2.3-3.7c-0.1-2.1,1-3.5,2.9-4.4c1.4-0.7,2.8-1,4.3-1.2C193.4,76.4,193.8,76.3,194.2,76.3
		z M194.2,79.2c-0.1,0-0.1,0-0.2,0c-0.7,0.2-1.4,0.3-2.1,0.5c-0.4,0.1-0.8,0.3-1.2,0.6c-0.5,0.4-0.6,1-0.4,1.7
		c0.2,0.6,0.6,0.9,1.2,1c1,0.2,1.9-0.2,2.6-0.8c0.1,0,0.1-0.2,0.1-0.3c0-0.8,0-1.6,0-2.5C194.2,79.3,194.2,79.2,194.2,79.2z"/>
	<path class="st0" d="M216.7,73.9c-0.7-0.3-1.4-0.7-2.1-0.9c-1-0.4-2.1-0.5-3.1-0.3c-1.5,0.3-2.5,1.2-3,2.6c-0.5,1.4-0.5,2.8,0,4.2
		c0.6,1.7,2.1,2.7,3.9,2.7c1.5,0,2.8-0.5,4.1-1.2c0.3-0.2,0.6,0,0.6,0.3c0,1.3,0,2.5,0,3.8c0,0.1-0.1,0.2-0.2,0.2
		c-1.9,0.8-3.8,1.1-5.8,0.9c-1.7-0.1-3.3-0.7-4.8-1.7c-2-1.4-3.1-3.3-3.5-5.7c-0.3-2-0.1-4,0.9-5.8c1.3-2.4,3.3-3.8,5.9-4.4
		c2.5-0.6,5-0.3,7.3,0.7c0.2,0.1,0.2,0.1,0.2,0.3c0,1.2,0,2.4,0,3.5C217.1,73.5,217,73.7,216.7,73.9z"/>
	<path class="st0" d="M181.5,81.9c0.3,0.2,0.4,0.4,0.4,0.7c0,1,0,2.1,0,3.1c0,0.1,0,0.2-0.2,0.3c-2,0.5-3.9,0.6-5.9-0.1
		c-1.8-0.6-2.7-1.9-3-3.7c-0.1-0.7-0.2-1.4-0.2-2.1c0-2.3,0-4.6,0-6.8c0-0.1,0-0.2,0-0.4c-0.9,0-1.9,0-2.8,0c0,0,0-0.1,0-0.1
		c2.7-2.6,5.3-5.3,8-7.9c0,1.3,0,2.6,0,3.9c0.1,0,0.2,0,0.3,0c1.1,0,2.3,0,3.4,0c0.4,0,0.6,0.2,0.6,0.6c0,0.9,0,1.9,0,2.8
		c0,0.4-0.2,0.6-0.6,0.6c-1.1,0-2.3,0-3.4,0c-0.1,0-0.2,0-0.3,0c0,0.1,0,0.1,0,0.2c0,2.3,0,4.5,0,6.8c0,0.4,0.1,0.8,0.2,1.2
		c0.2,0.9,0.7,1.3,1.7,1.3C180.4,82.3,181,82.2,181.5,81.9z"/>
	<path class="st0" d="M253.7,68.4c-0.1,0.7-0.1,1.3-0.2,1.9c-0.1,0.9-0.2,1.8-0.3,2.7c0,0.4-0.3,0.6-0.7,0.6c-2-0.1-3.7,0.7-5,2.3
		c-0.1,0.1-0.2,0.3-0.2,0.5c0,3,0,6,0,9c0,0.4-0.2,0.6-0.6,0.6c-1.3,0-2.7,0-4,0c-0.4,0-0.6-0.2-0.6-0.6c0-5.3,0-10.7,0-16
		c0-0.4,0.2-0.6,0.6-0.6c1.4,0,2.7,0,4.1,0c0.3,0,0.6,0.2,0.6,0.6c0,0.5,0,1,0,1.5c0,0.1,0,0.2,0,0.3
		C249.3,69.6,251.2,68.5,253.7,68.4z"/>
	<path class="st0" d="M102.1,72.8c-0.5,0-1,0-1.4,0c-0.3,0-0.5-0.3-0.5-0.5c0-1,0-2,0-3c0-0.3,0.3-0.5,0.5-0.5c2.1,0,4.1,0,6.2,0
		c0.3,0,0.5,0.3,0.5,0.6c0,3.7,0,7.4,0,11.1c0,1.7,0,3.3,0,5c0,0.4-0.2,0.6-0.6,0.6c-1.3,0-2.7,0-4,0c-0.4,0-0.6-0.2-0.6-0.6
		c0-4.1,0-8.1,0-12.2C102.1,73.1,102.1,73,102.1,72.8z"/>
	<path class="st0" d="M103.8,64.9l-2.6-2.6c-0.3-0.3-0.3-0.9,0-1.2l2.6-2.6c0.3-0.3,0.9-0.3,1.2,0l2.6,2.6c0.3,0.3,0.3,0.9,0,1.2
		l-2.6,2.6C104.7,65.2,104.1,65.2,103.8,64.9z"/>
</g>
</svg>
