<?xml version="1.0" encoding="UTF-8"?>
<svg id="Layer_2" data-name="Layer 2" xmlns="http://www.w3.org/2000/svg" xmlns:xlink="http://www.w3.org/1999/xlink" viewBox="0 0 25 25">
  <defs>
    <style>
      .cls-1 {
        opacity: .25;
      }

      .cls-2 {
        fill: none;
      }

      .cls-3 {
        fill: #97d66e;
      }

      .cls-4 {
        opacity: .2;
      }

      .cls-5 {
        fill: #61b12f;
      }

      .cls-6 {
        clip-path: url(#clippath);
      }
    </style>
    <clipPath id="clippath">
      <rect class="cls-2" width="25" height="25"/>
    </clipPath>
  </defs>
  <g id="Layer_1-2" data-name="Layer 1">
    <g>
      <g class="cls-4">
        <polygon class="cls-5" points="18.74 13.3 18.77 13.24 21.51 7.84 25 5.69 24.97 5.64 21.47 7.8 21.46 7.81 18.75 13.17 17.47 9.9 15.87 6.13 15.84 6.14 12.42 8.42 7.66 6.05 7.68 6.11 8.42 9.43 8.47 9.42 7.74 6.15 12.42 8.48 12.43 8.47 15.84 6.2 17.42 9.92 18.74 13.3"/>
        <polygon class="cls-5" points="14.16 17.96 14.05 17.76 7.7 5.95 7.68 6 3.44 15.84 .28 17.01 .3 17.06 3.48 15.88 3.49 15.87 7.71 6.07 13.9 17.59 10.09 13.3 10.05 13.34 14.16 17.96"/>
        <polygon class="cls-5" points="6.95 14.73 10.09 13.34 10.1 13.33 10.72 11.87 13.69 12.13 13.7 12.12 15.43 10.43 17.45 9.93 17.44 9.88 15.4 10.39 13.67 12.07 10.69 11.81 10.68 11.83 10.05 13.3 6.93 14.69 6.95 14.73"/>
        <polygon class="cls-5" points="12.32 17.84 12.34 17.79 7.5 16.2 12.44 8.46 12.4 8.43 7.42 16.23 7.45 16.24 12.32 17.84"/>
        <polygon class="cls-5" points="18.77 13.15 19.56 3.04 19.51 3.08 15.84 6.15 15.87 6.18 19.5 3.16 18.72 13.14 18.77 13.15"/>
        <polygon class="cls-5" points="24.92 8.01 24.96 7.98 22.58 4.74 24.96 4.89 24.97 4.83 22.47 4.68 22.51 4.72 24.92 8.01"/>
        <polygon class="cls-5" points="21.51 7.83 22.54 4.75 24.95 6.21 24.98 6.17 22.51 4.67 22.5 4.7 21.46 7.81 21.51 7.83"/>
        <polygon class="cls-5" points="5.05 17.77 5.09 17.73 3.48 15.84 1.55 12.65 1.5 12.68 3.35 17.76 3.4 17.75 1.64 12.91 3.44 15.88 5.05 17.77"/>
        <path class="cls-5" d="M22.14,4.71c0,.21.17.39.39.39s.39-.17.39-.39-.17-.38-.39-.38-.39.17-.39.38Z"/>
        <path class="cls-5" d="M21.07,7.86c0,.21.17.39.39.39s.39-.17.39-.39-.17-.39-.39-.39-.39.17-.39.39Z"/>
        <path class="cls-5" d="M15.45,6.2c0,.21.17.39.39.39s.39-.17.39-.39-.17-.39-.39-.39-.39.17-.39.39Z"/>
        <path class="cls-5" d="M12.01,8.49c0,.21.17.39.39.39s.39-.17.39-.39-.17-.39-.39-.39-.39.17-.39.39Z"/>
        <path class="cls-5" d="M7.38,6.18c0,.21.17.39.39.39s.39-.17.39-.39-.17-.38-.39-.38-.39.17-.39.38Z"/>
        <path class="cls-5" d="M6.57,14.75c0,.2.17.37.37.37s.37-.17.37-.37-.17-.37-.37-.37-.37.17-.37.37Z"/>
        <path class="cls-5" d="M11.95,17.78c0,.2.17.37.37.37s.37-.17.37-.37-.17-.37-.37-.37-.37.16-.37.37Z"/>
        <path class="cls-5" d="M4.65,17.62c0,.2.17.37.37.37s.37-.17.37-.37-.17-.37-.37-.37-.37.17-.37.37Z"/>
        <path class="cls-5" d="M2.92,17.73c0,.2.17.37.37.37s.37-.17.37-.37-.17-.37-.37-.37-.37.16-.37.37Z"/>
        <path class="cls-5" d="M13.65,17.75c0,.2.17.37.37.37s.37-.17.37-.37-.17-.37-.37-.37-.37.17-.37.37Z"/>
        <path class="cls-5" d="M1.21,12.73c0,.2.17.37.37.37s.37-.16.37-.37-.17-.37-.37-.37-.37.17-.37.37Z"/>
        <path class="cls-5" d="M3.13,15.78c0,.2.17.37.37.37s.37-.17.37-.37-.17-.37-.37-.37-.37.16-.37.37Z"/>
        <path class="cls-5" d="M0,17.03c0,.2.17.37.37.37s.37-.17.37-.37-.17-.37-.37-.37-.37.17-.37.37Z"/>
        <path class="cls-5" d="M7.11,16.12c0,.2.17.37.37.37s.37-.17.37-.37-.17-.37-.37-.37-.37.17-.37.37Z"/>
        <path class="cls-5" d="M9.67,13.25c0,.2.17.37.37.37s.37-.17.37-.37-.17-.37-.37-.37-.37.17-.37.37Z"/>
        <circle class="cls-5" cx="13.65" cy="12.14" r=".33"/>
        <circle class="cls-5" cx="5.12" cy="14.05" r=".33"/>
        <path class="cls-5" d="M15.03,10.48c0,.18.15.33.33.33s.33-.15.33-.33-.15-.33-.33-.33-.33.15-.33.33Z"/>
        <path class="cls-5" d="M10.4,11.98c0,.18.15.33.33.33s.33-.15.33-.33-.15-.33-.33-.33-.33.15-.33.33Z"/>
        <path class="cls-5" d="M18.33,13.18c0,.2.17.37.37.37s.37-.17.37-.37-.17-.37-.37-.37-.37.16-.37.37Z"/>
        <path class="cls-5" d="M16.92,10.04c0,.2.17.37.37.37s.37-.16.37-.37-.17-.37-.37-.37-.37.17-.37.37Z"/>
        <path class="cls-5" d="M8.1,9.38c0,.18.14.32.32.32s.32-.14.32-.32-.14-.32-.32-.32-.32.14-.32.32Z"/>
        <polygon class="cls-5" points="3.48 15.95 5.24 13.94 5.2 13.91 3.44 15.91 3.48 15.95"/>
        <polygon class="cls-5" points="6.44 17.69 6.45 17.68 7.5 16.13 7.46 16.1 6.41 17.64 .37 17 .37 17.06 6.44 17.69"/>
      </g>
      <g>
        <polygon class="cls-5" points="6.26 9.89 6.23 9.94 3.49 15.35 0 17.5 .03 17.54 3.53 15.39 3.54 15.38 6.25 10.02 7.53 13.29 9.13 17.06 9.16 17.04 12.58 14.77 17.34 17.14 17.32 17.08 16.58 13.76 16.53 13.77 17.26 17.04 12.58 14.71 12.57 14.72 9.16 16.98 7.58 13.27 6.26 9.89"/>
        <polygon class="cls-5" points="10.84 5.23 10.95 5.42 17.3 17.23 17.32 17.18 21.56 7.35 24.72 6.18 24.7 6.13 21.52 7.31 21.51 7.32 17.29 17.11 11.1 5.6 14.91 9.89 14.95 9.85 10.84 5.23"/>
        <polygon class="cls-5" points="18.05 8.45 14.91 9.85 14.9 9.86 14.28 11.32 11.31 11.06 11.3 11.07 9.57 12.76 7.55 13.26 7.56 13.31 9.6 12.8 11.33 11.11 14.31 11.38 14.32 11.36 14.95 9.89 18.07 8.5 18.05 8.45"/>
        <polygon class="cls-5" points="12.68 5.34 12.66 5.39 17.5 6.99 12.56 14.72 12.6 14.75 17.58 6.96 17.55 6.95 12.68 5.34"/>
        <polygon class="cls-5" points="6.23 10.04 5.44 20.15 5.49 20.11 9.16 17.04 9.13 17 5.5 20.03 6.28 10.04 6.23 10.04"/>
        <polygon class="cls-5" points=".08 15.18 .04 15.21 2.42 18.45 .04 18.3 .03 18.35 2.53 18.51 2.49 18.46 .08 15.18"/>
        <polygon class="cls-5" points="3.49 15.36 2.46 18.44 .05 16.98 .02 17.02 2.49 18.52 2.5 18.49 3.54 15.38 3.49 15.36"/>
        <polygon class="cls-5" points="19.95 5.42 19.91 5.46 21.52 7.34 23.45 10.53 23.5 10.51 21.65 5.42 21.6 5.44 23.36 10.28 21.56 7.31 19.95 5.42"/>
        <path class="cls-5" d="M2.86,18.48c0-.21-.17-.39-.39-.39s-.39.17-.39.39.17.38.39.38.39-.17.39-.38Z"/>
        <path class="cls-5" d="M3.93,15.33c0-.21-.17-.39-.39-.39s-.39.17-.39.39.17.39.39.39.39-.17.39-.39Z"/>
        <path class="cls-5" d="M9.55,16.98c0-.21-.17-.39-.39-.39s-.39.17-.39.39.17.39.39.39.39-.17.39-.39Z"/>
        <path class="cls-5" d="M12.99,14.7c0-.21-.17-.39-.39-.39s-.39.17-.39.39.17.39.39.39.39-.17.39-.39Z"/>
        <path class="cls-5" d="M17.62,17.01c0-.21-.17-.39-.39-.39s-.39.17-.39.39.17.38.39.38.39-.17.39-.38Z"/>
        <path class="cls-5" d="M18.43,8.44c0-.2-.17-.37-.37-.37s-.37.17-.37.37.17.37.37.37.37-.17.37-.37Z"/>
        <path class="cls-5" d="M13.05,5.41c0-.2-.17-.37-.37-.37s-.37.17-.37.37.17.37.37.37.37-.17.37-.37Z"/>
        <path class="cls-5" d="M20.35,5.56c0-.2-.17-.37-.37-.37s-.37.17-.37.37.17.37.37.37.37-.17.37-.37Z"/>
        <path class="cls-5" d="M22.08,5.46c0-.2-.17-.37-.37-.37s-.37.17-.37.37.17.37.37.37.37-.17.37-.37Z"/>
        <path class="cls-5" d="M11.35,5.44c0-.2-.17-.37-.37-.37s-.37.17-.37.37.17.37.37.37.37-.17.37-.37Z"/>
        <path class="cls-5" d="M23.79,10.46c0-.2-.17-.37-.37-.37s-.37.16-.37.37.17.37.37.37.37-.17.37-.37Z"/>
        <path class="cls-5" d="M21.87,7.41c0-.2-.17-.37-.37-.37s-.37.17-.37.37.16.37.37.37.37-.17.37-.37Z"/>
        <path class="cls-5" d="M25,6.16c0-.2-.17-.37-.37-.37s-.37.17-.37.37.17.37.37.37.37-.17.37-.37Z"/>
        <path class="cls-5" d="M17.89,7.07c0-.2-.17-.37-.37-.37s-.37.17-.37.37.17.37.37.37.37-.17.37-.37Z"/>
        <path class="cls-5" d="M15.33,9.94c0-.2-.17-.37-.37-.37s-.37.17-.37.37.17.37.37.37.37-.16.37-.37Z"/>
        <circle class="cls-5" cx="11.35" cy="11.05" r=".33"/>
        <path class="cls-5" d="M20.2,9.14c0-.18-.15-.33-.33-.33s-.33.15-.33.33.15.33.33.33.33-.15.33-.33Z"/>
        <path class="cls-5" d="M9.97,12.71c0-.18-.15-.33-.33-.33s-.33.15-.33.33.15.33.33.33.33-.15.33-.33Z"/>
        <path class="cls-5" d="M14.6,11.21c0-.18-.15-.33-.33-.33s-.33.15-.33.33.15.33.33.33.33-.15.33-.33Z"/>
        <path class="cls-5" d="M6.67,10c0-.2-.17-.37-.37-.37s-.37.17-.37.37.17.37.37.37.37-.16.37-.37Z"/>
        <path class="cls-5" d="M8.08,13.15c0-.2-.17-.37-.37-.37s-.37.16-.37.37.17.37.37.37.37-.17.37-.37Z"/>
        <path class="cls-5" d="M16.9,13.81c0-.18-.14-.32-.32-.32s-.32.14-.32.32.14.32.32.32.32-.14.32-.32Z"/>
        <polygon class="cls-5" points="21.52 7.24 19.76 9.24 19.8 9.28 21.56 7.28 21.52 7.24"/>
        <polygon class="cls-5" points="18.56 5.49 18.55 5.51 17.5 7.06 17.54 7.08 18.59 5.55 24.63 6.18 24.63 6.13 18.56 5.49"/>
      </g>
    </g>
    <g class="cls-6">
      <g class="cls-1">
        <g class="cls-4">
          <polygon class="cls-3" points="10.07 18.78 10 18.77 2.95 17.89 -1.43 19.88 -1.46 19.83 2.94 17.83 2.95 17.83 9.94 18.7 7.6 15.31 4.98 11.29 5.01 11.27 9.47 9.43 10.28 3.26 10.32 3.31 13.07 6.21 13.03 6.25 10.32 3.4 9.52 9.48 9.51 9.48 5.07 11.32 7.65 15.28 10.07 18.78"/>
          <polygon class="cls-3" points="17.61 17.37 17.48 17.14 10.16 3.23 10.22 3.24 22.56 5.57 25.77 3.26 25.81 3.31 22.58 5.63 22.56 5.63 10.27 3.32 17.42 16.88 15.74 10.37 15.8 10.35 17.61 17.37"/>
          <polygon class="cls-3" points="19.19 8.25 15.77 10.39 15.76 10.39 13.93 10.04 12.24 13.1 12.23 13.1 9.45 13.68 7.64 15.32 7.6 15.27 9.43 13.62 12.2 13.05 13.9 9.97 13.92 9.98 15.76 10.33 19.16 8.2 19.19 8.25"/>
          <polygon class="cls-3" points="18.69 15.52 18.63 15.5 20.25 9.75 9.49 9.49 9.49 9.43 20.33 9.69 20.32 9.73 18.69 15.52"/>
          <polygon class="cls-3" points="9.9 18.71 -.44 12.86 -.37 12.84 5.02 11.27 5.03 11.33 -.29 12.88 9.93 18.66 9.9 18.71"/>
          <polygon class="cls-3" points=".88 21.32 .82 21.34 -.77 16.91 -2.18 19.32 -2.24 19.29 -.76 16.77 -.73 16.83 .88 21.32"/>
          <polygon class="cls-3" points="2.94 17.89 -.73 16.88 -.89 20.18 -.95 20.17 -.79 16.8 -.75 16.81 2.95 17.83 2.94 17.89"/>
          <polygon class="cls-3" points="23.38 8.39 23.32 8.41 22.54 5.61 20.7 1.64 20.75 1.61 24.49 6.74 24.44 6.77 20.89 1.9 22.6 5.59 23.38 8.39"/>
          <path class="cls-3" d="M3.25,17.48c.21.14.26.42.12.63-.14.21-.42.26-.63.12-.21-.14-.26-.42-.12-.63.14-.21.42-.26.63-.12Z"/>
          <path class="cls-3" d="M5.33,10.93c.21.14.26.42.12.63-.14.21-.42.26-.63.12-.21-.14-.26-.42-.12-.63.14-.21.42-.26.63-.12Z"/>
          <path class="cls-3" d="M9.8,9.08c.21.14.26.42.12.63-.14.21-.42.26-.63.12-.21-.14-.26-.42-.12-.63.14-.21.42-.26.63-.12Z"/>
          <path class="cls-3" d="M10.59,3.07c.21.14.26.42.12.63-.14.21-.42.26-.63.12-.21-.14-.26-.42-.12-.63.14-.21.42-.26.63-.12Z"/>
          <path class="cls-3" d="M19.45,7.89c.2.13.25.4.12.6-.13.2-.4.25-.6.12-.2-.13-.25-.4-.12-.6.13-.2.4-.25.6-.12Z"/>
          <path class="cls-3" d="M18.88,15.11c.2.13.25.4.12.6-.13.2-.4.25-.6.12-.2-.13-.25-.4-.12-.6.13-.2.4-.25.6-.12Z"/>
          <path class="cls-3" d="M23.5,7.91c.2.13.25.4.12.6-.13.2-.4.25-.6.12-.2-.13-.25-.4-.12-.6.13-.2.4-.25.6-.12Z"/>
          <path class="cls-3" d="M24.75,6.29c.2.13.25.4.12.6-.13.2-.4.25-.6.12-.2-.13-.25-.4-.12-.6.13-.2.4-.25.6-.12Z"/>
          <path class="cls-3" d="M17.73,16.74c.2.13.25.4.12.6-.13.2-.4.25-.6.12-.2-.13-.25-.4-.12-.6.13-.2.4-.25.6-.12Z"/>
          <path class="cls-3" d="M21,1.35c.2.13.25.4.12.6-.13.2-.4.25-.6.12-.2-.13-.25-.4-.12-.6.13-.2.4-.25.6-.12Z"/>
          <path class="cls-3" d="M22.7,5.22c.2.13.25.4.12.6-.13.2-.4.25-.6.12-.2-.13-.25-.4-.12-.6.13-.2.4-.25.6-.12Z"/>
          <path class="cls-3" d="M20.43,9.31c.2.13.25.4.12.6-.13.2-.4.25-.6.12-.2-.13-.25-.4-.12-.6.13-.2.4-.25.6-.12Z"/>
          <path class="cls-3" d="M15.96,9.92c.2.13.25.4.12.6-.13.2-.4.25-.6.12-.2-.13-.25-.4-.12-.6.13-.2.4-.25.6-.12Z"/>
          <path class="cls-3" d="M12.49,12.75c.17.12.22.36.1.53-.12.17-.35.22-.53.1s-.22-.36-.1-.53c.12-.17.35-.22.53-.1Z"/>
          <path class="cls-3" d="M19.93,5.71c.17.12.22.36.1.53-.12.18-.35.22-.53.1-.17-.12-.22-.36-.1-.53.12-.18.35-.22.53-.1Z"/>
          <path class="cls-3" d="M9.76,13.33c.18.12.22.35.1.53-.12.17-.36.22-.53.1-.17-.12-.22-.36-.1-.53.12-.18.36-.22.53-.1Z"/>
          <path class="cls-3" d="M14.25,9.81c.17.12.22.35.1.53-.12.17-.35.22-.53.1-.17-.12-.22-.36-.1-.53.12-.17.36-.22.53-.1Z"/>
          <path class="cls-3" d="M10.23,18.3c.2.13.25.4.12.6-.13.2-.4.25-.6.12-.2-.13-.25-.4-.12-.6.13-.2.4-.25.6-.12Z"/>
          <path class="cls-3" d="M8.09,14.87c.2.13.25.4.12.6-.13.2-.4.25-.6.12-.2-.13-.25-.4-.12-.6.13-.2.4-.25.6-.12Z"/>
          <path class="cls-3" d="M13.23,5.86c.17.12.22.35.1.52-.12.17-.35.22-.52.1-.17-.12-.22-.35-.1-.52.12-.17.35-.22.52-.1Z"/>
          <rect class="cls-3" x="19.52" y="5.81" width="3.12" height=".06" transform="translate(-.58 2.76) rotate(-7.38)"/>
          <polygon class="cls-3" points="22.4 9.69 22.38 9.69 20.19 9.7 20.19 9.64 22.37 9.63 25.71 3.34 25.76 3.37 22.4 9.69"/>
        </g>
        <g>
          <polygon class="cls-3" points="14.93 4.41 15 4.42 22.05 5.3 26.43 3.31 26.46 3.36 22.06 5.36 22.05 5.36 15.06 4.49 17.4 7.88 20.02 11.9 19.99 11.91 15.53 13.75 14.72 19.93 14.68 19.88 11.93 16.98 11.97 16.94 14.68 19.79 15.48 13.71 15.49 13.7 19.93 11.87 17.35 7.91 14.93 4.41"/>
          <polygon class="cls-3" points="7.39 5.81 7.51 6.05 14.84 19.96 14.78 19.95 2.44 17.62 -.77 19.93 -.81 19.88 2.42 17.56 2.44 17.56 14.73 19.87 7.58 6.31 9.26 12.82 9.2 12.83 7.39 5.81"/>
          <polygon class="cls-3" points="5.81 14.93 9.23 12.79 9.24 12.8 11.07 13.15 12.76 10.09 12.77 10.08 15.55 9.5 17.36 7.87 17.4 7.92 15.57 9.56 12.8 10.14 11.1 13.21 11.08 13.21 9.24 12.86 5.84 14.99 5.81 14.93"/>
          <polygon class="cls-3" points="6.31 7.67 6.37 7.69 4.75 13.44 15.51 13.7 15.5 13.76 4.67 13.5 4.68 13.46 6.31 7.67"/>
          <polygon class="cls-3" points="15.1 4.48 25.44 10.33 25.37 10.35 19.98 11.92 19.97 11.86 25.29 10.31 15.07 4.53 15.1 4.48"/>
          <polygon class="cls-3" points="24.12 1.86 24.18 1.84 25.77 6.28 27.18 3.87 27.24 3.9 25.76 6.42 25.73 6.36 24.12 1.86"/>
          <polygon class="cls-3" points="22.06 5.3 25.73 6.31 25.89 3.01 25.95 3.01 25.79 6.39 25.75 6.38 22.05 5.36 22.06 5.3"/>
          <polygon class="cls-3" points="1.62 14.8 1.68 14.78 2.46 17.58 4.3 21.55 4.25 21.58 .51 16.45 .56 16.42 4.11 21.29 2.4 17.6 1.62 14.8"/>
          <path class="cls-3" d="M21.75,5.71c-.21-.14-.26-.42-.12-.63.14-.21.42-.26.63-.12.21.14.26.42.12.63-.14.21-.42.26-.63.12Z"/>
          <path class="cls-3" d="M19.67,12.26c-.21-.14-.26-.42-.12-.63.14-.21.42-.26.63-.12.21.14.26.42.12.63-.14.21-.42.26-.63.12Z"/>
          <path class="cls-3" d="M15.2,14.1c-.21-.14-.26-.42-.12-.63.14-.21.42-.26.63-.12.21.14.26.42.12.63-.14.21-.42.26-.63.12Z"/>
          <path class="cls-3" d="M14.41,20.12c-.21-.14-.26-.42-.12-.63.14-.21.42-.26.63-.12.21.14.26.42.12.63-.14.21-.42.26-.63.12Z"/>
          <path class="cls-3" d="M5.55,15.29c-.2-.13-.25-.4-.12-.6.13-.2.4-.25.6-.12.2.13.25.4.12.6-.13.2-.4.25-.6.12Z"/>
          <path class="cls-3" d="M6.12,8.08c-.2-.13-.25-.4-.12-.6.13-.2.4-.25.6-.12.2.13.25.4.12.6-.13.2-.4.25-.6.12Z"/>
          <path class="cls-3" d="M1.5,15.28c-.2-.13-.25-.4-.12-.6.13-.2.4-.25.6-.12.2.13.25.4.12.6-.13.2-.4.25-.6.12Z"/>
          <path class="cls-3" d="M.25,16.89c-.2-.13-.25-.4-.12-.6.13-.2.4-.25.6-.12.2.13.25.4.12.6-.13.2-.4.25-.6.12Z"/>
          <path class="cls-3" d="M7.27,6.45c-.2-.13-.25-.4-.12-.6.13-.2.4-.25.6-.12.2.13.25.4.12.6-.13.2-.4.25-.6.12Z"/>
          <path class="cls-3" d="M4,21.83c-.2-.13-.25-.4-.12-.6.13-.2.4-.25.6-.12.2.13.25.4.12.6-.13.2-.4.25-.6.12Z"/>
          <path class="cls-3" d="M2.3,17.97c-.2-.13-.25-.4-.12-.6.13-.2.4-.25.6-.12.2.13.25.4.12.6-.13.2-.4.25-.6.12Z"/>
          <path class="cls-3" d="M4.57,13.87c-.2-.13-.25-.4-.12-.6.13-.2.4-.25.6-.12.2.13.25.4.12.6-.13.2-.4.25-.6.12Z"/>
          <path class="cls-3" d="M9.04,13.26c-.2-.13-.25-.4-.12-.6.13-.2.4-.25.6-.12.2.13.25.4.12.6-.13.2-.4.25-.6.12Z"/>
          <path class="cls-3" d="M12.51,10.44c-.17-.12-.22-.36-.1-.53.12-.17.35-.22.53-.1.17.12.22.36.1.53-.12.17-.35.22-.53.1Z"/>
          <path class="cls-3" d="M5.07,17.47c-.17-.12-.22-.35-.1-.53.12-.17.36-.22.53-.1.17.12.22.36.1.53-.12.17-.35.22-.53.1Z"/>
          <path class="cls-3" d="M15.24,9.86c-.17-.12-.22-.35-.1-.53.12-.17.36-.22.53-.1.17.12.22.36.1.53-.12.17-.36.22-.53.1Z"/>
          <path class="cls-3" d="M10.75,13.38c-.17-.12-.22-.36-.1-.53.12-.17.36-.22.53-.1.17.12.22.36.1.53-.12.18-.36.22-.53.1Z"/>
          <path class="cls-3" d="M14.77,4.89c-.2-.13-.25-.4-.12-.6.13-.2.4-.25.6-.12.2.13.25.4.12.6-.13.2-.4.25-.6.12Z"/>
          <path class="cls-3" d="M16.91,8.32c-.2-.13-.25-.4-.12-.6.13-.2.4-.25.6-.12.2.13.25.4.12.6-.13.2-.4.25-.6.12Z"/>
          <path class="cls-3" d="M11.77,17.33c-.17-.12-.22-.35-.1-.52.12-.17.35-.22.52-.1.17.12.22.35.1.52-.12.17-.35.22-.52.1Z"/>
          <polygon class="cls-3" points="2.36 17.51 5.46 17.11 5.47 17.17 2.37 17.58 2.36 17.51"/>
          <polygon class="cls-3" points="2.6 13.49 2.62 13.5 4.81 13.48 4.81 13.54 2.64 13.55 -.7 19.84 -.76 19.82 2.6 13.49"/>
        </g>
      </g>
    </g>
  </g>
</svg>