<?xml version="1.0" encoding="UTF-8"?>
<svg id="Layer_1" data-name="Layer 1" xmlns="http://www.w3.org/2000/svg" viewBox="100 400 900 280">
  <defs>
    <style>
      .cls-1 {
        fill: #1b2417;
      }

      .cls-2 {
        fill: #fff;
      }

      .cls-3 {
        fill: #61b12f;
      }
    </style>
  </defs>

  <g>
    <path class="cls-2" d="M240.61,549.27c-4.47-4.58-9.9-8.36-16.3-11.34,4.54-2.4,8.42-5.26,11.63-8.56,7.47-7.65,11.21-17,11.21-28.06,0-8.67-2.22-16.58-6.66-23.73-4.45-7.14-10.89-12.84-19.33-17.09-8.45-4.26-18.72-6.39-30.81-6.39h-39.47s-9.33-.01-9.33-.01h-32s-.04,180.12-.04,180.12h41.34s0,0,0,0h38.93c13.34.02,24.76-2.28,34.27-6.87,9.52-4.59,16.81-10.84,21.88-18.75,5.07-7.91,7.6-16.79,7.6-26.66,0-12.92-4.3-23.81-12.92-32.66ZM150.88,485.22h31.48c6.93,0,12.53,1.66,16.8,4.98,4.27,3.32,6.4,8.3,6.4,14.93s-2.14,11.86-6.41,15.18c-4.27,3.31-9.87,4.97-16.8,4.97h-31.47v-40.06ZM204.99,596.21c-4.62,4.59-11.03,6.89-19.2,6.89h-34.93v-47.47h34.94c5.51.01,10.18,1.03,14,3.08,3.82,2.04,6.8,4.84,8.93,8.42,2.13,3.57,3.2,7.65,3.2,12.24,0,6.64-2.31,12.25-6.94,16.84Z"/>
    <polygon class="cls-2" points="400.48 599.06 400.48 634.27 317.01 634.25 307.4 634.25 275.12 634.24 275.17 454.12 317.04 454.13 317.02 599.04 400.48 599.06"/>
    <polygon class="cls-2" points="778.12 634.34 729.05 634.33 687.11 570.16 643.17 634.31 595.43 634.3 662.43 541.52 598.95 454.18 648.82 454.19 688.4 511.99 727.23 454.21 774.97 454.22 713.29 540.82 778.12 634.34"/>
    <path class="cls-2" d="M592.61,583.69c-16.49,30.09-49.47,50.66-87.38,50.66-54.39,0-98.64-42.32-98.64-94.36,0-18.56,5.65-35.93,15.38-50.54l27.04,14.95,143.59,79.29Z"/>
  </g>
  <path class="cls-3" d="M603.85,540c0,10.39-1.77,20.38-5.02,29.73l-27.84-15.38c1.09-4.62,1.68-9.41,1.68-14.35,0-35.58-30.25-64.51-67.44-64.51-17.69,0-33.8,6.53-45.84,17.24l-27.84-15.38c18.07-19.42,44.4-31.68,73.67-31.68,54.38,0,98.62,42.32,98.62,94.34h0Z"/>
  <polygon class="cls-3" points="464.09 575.85 464.09 541.82 546.35 504.15 546.35 538.18 464.09 575.85"/>
  <g>
    <polygon class="cls-2" points="792.52 529.03 792.52 537.8 781.98 537.8 781.98 571.13 771.89 571.13 771.89 537.8 761.35 537.8 761.35 529.03 771.89 529.03 771.89 511.49 781.98 511.49 781.98 529.03 792.52 529.03"/>
    <path class="cls-2" d="M830.21,532.98l-6.6,6.49c-.8-.82-1.69-1.4-2.66-1.75-.98-.35-2.11-.53-3.4-.53-2.81,0-5.13.85-6.96,2.54-1.84,1.7-2.76,4.36-2.76,7.98v23.42h-10.08v-42.1h10.08v4.4c.08-.11.15-.22.23-.32,2.48-3.3,6.22-4.95,11.24-4.95,2.2,0,4.18.38,5.96,1.14,1.77.76,3.42,1.99,4.95,3.68Z"/>
    <path class="cls-2" d="M863.58,529.03v4.7c-1.26-1.41-2.77-2.58-4.54-3.51-2.6-1.38-5.58-2.06-8.94-2.06-3.97,0-7.56.98-10.77,2.93-3.21,1.96-5.75,4.6-7.61,7.9-1.87,3.3-2.8,7.03-2.8,11.18s.93,7.79,2.8,11.1c1.86,3.3,4.4,5.92,7.61,7.85s6.8,2.89,10.77,2.89c3.36,0,6.36-.69,8.99-2.06,1.75-.91,3.25-2.06,4.49-3.43v4.61h10.09v-42.1h-10.09ZM860.79,559.29c-2.3,2.4-5.31,3.6-9.04,3.6-2.44,0-4.6-.54-6.46-1.62-1.87-1.08-3.33-2.59-4.4-4.52s-1.61-4.15-1.61-6.67.54-4.73,1.61-6.66c1.07-1.93,2.53-3.44,4.4-4.52,1.86-1.08,4.02-1.62,6.46-1.62s4.69.54,6.56,1.62c1.86,1.08,3.31,2.59,4.35,4.52,1.04,1.93,1.56,4.15,1.56,6.66,0,3.75-1.14,6.82-3.43,9.21Z"/>
    <path class="cls-2" d="M912.54,507.98v25.75c-1.26-1.41-2.78-2.58-4.54-3.51-2.6-1.38-5.58-2.06-8.94-2.06-3.98,0-7.57.98-10.78,2.93-3.2,1.96-5.74,4.6-7.61,7.9-1.86,3.3-2.79,7.03-2.79,11.18s.93,7.79,2.79,11.1c1.87,3.3,4.41,5.92,7.61,7.85,3.21,1.93,6.8,2.89,10.78,2.89,3.36,0,6.35-.69,8.98-2.06,1.76-.92,3.26-2.06,4.5-3.44v4.62h10.08v-63.15h-10.08ZM911.62,556.75c-1.04,1.93-2.49,3.44-4.36,4.52-1.86,1.08-4.05,1.62-6.55,1.62s-4.6-.54-6.47-1.62c-1.86-1.08-3.33-2.59-4.4-4.52s-1.6-4.15-1.6-6.67.53-4.73,1.6-6.66c1.07-1.93,2.54-3.44,4.4-4.52,1.87-1.08,4.05-1.62,6.56-1.62s4.6.54,6.46,1.62c1.87,1.08,3.32,2.59,4.36,4.52,1.04,1.93,1.56,4.15,1.56,6.66s-.52,4.74-1.56,6.67Z"/>
    <path class="cls-2" d="M967.79,538.33c-1.8-3.16-4.28-5.64-7.43-7.46-3.15-1.81-6.77-2.71-10.86-2.71s-8.06.96-11.51,2.89c-3.45,1.93-6.19,4.55-8.2,7.85-2.02,3.3-3.03,7.03-3.03,11.18s1.02,7.9,3.07,11.23,4.83,5.95,8.34,7.85c3.52,1.9,7.48,2.85,11.88,2.85,3.42,0,6.66-.61,9.72-1.84,3.05-1.23,5.65-3.04,7.79-5.44l-6.42-6.23c-1.34,1.47-2.98,2.58-4.9,3.34-1.93.76-4.02,1.14-6.28,1.14-2.63,0-4.95-.54-6.97-1.63-2.02-1.08-3.58-2.61-4.68-4.6-.53-.95-.93-1.97-1.2-3.07h32.83c.19-.88.33-1.68.42-2.41.09-.73.13-1.45.13-2.15,0-4.04-.9-7.63-2.7-10.79ZM937.14,545.79c.25-1,.61-1.92,1.08-2.77,1.04-1.9,2.51-3.37,4.4-4.43,1.9-1.05,4.13-1.58,6.69-1.58s4.51.47,6.19,1.41c1.68.93,2.98,2.28,3.9,4.03.52.99.91,2.1,1.17,3.34h-23.43Z"/>
  </g>
</svg>